<svg width="375" height="375" viewBox="0 0 375 375" fill="none" xmlns="http://www.w3.org/2000/svg">
<path d="M64 216.512C64 210.794 68.7875 206.239 74.4994 206.525L254.499 215.525C259.821 215.791 264 220.184 264 225.512V305.488C264 311.206 259.212 315.761 253.501 315.475L73.5006 306.475C68.1785 306.209 64 301.816 64 296.488V216.512Z" fill="#56CCF2"/>
<path d="M64 77.5125C64 72.1837 68.1785 67.7911 73.5006 67.525L253.501 58.525C259.212 58.2394 264 62.7935 264 68.5125V148.488C264 153.816 259.821 158.209 254.499 158.475L74.4994 167.475C68.7875 167.761 64 163.206 64 157.488V77.5125Z" fill="#EB5757"/>
<path d="M131 156.512C131 151.184 135.179 146.791 140.501 146.525L320.501 137.525C326.212 137.239 331 141.794 331 147.512V226.488C331 232.206 326.212 236.761 320.501 236.475L140.501 227.475C135.179 227.209 131 222.816 131 217.488V156.512Z" fill="#9B51E0" style="mix-blend-mode:multiply"/>
</svg>
